# xmcd CD database file
#
# Track frame offsets:
#	150
#	16487
#	32047
#	49552
#	65800
#	79645
#	93437
#	106095
#
# Disc length: 1646 seconds
#
# Revision: 3
# Processed by: cddbd v1.5.2PL0 Copyright (c) Steve Scherf et al.
# Submitted via: CDex 1.70beta2
#
DISCID=5b066c08
DTITLE=Restless Heart - Restless Heart
DYEAR=1985
DGENRE=Country
TTITLE0=Let The Heartache Ride
TTITLE1=I Want Everyone To Cry
TTITLE2=(Back To The) Heartbreak Kid
TTITLE3=Restless Heart
TTITLE4=She's Coming Home
TTITLE5=Til I Loved You
TTITLE6=Shakin' The Night Away
TTITLE7=She Danced Her Way (Into My Heart)
EXTD=YEAR: 1985
EXTT0=
EXTT1=
EXTT2=
EXTT3=
EXTT4=
EXTT5=
EXTT6=
EXTT7=
PLAYORDER=
